<svg width="1982" height="1080" viewBox="0 0 1982 1080" fill="none" xmlns="http://www.w3.org/2000/svg">
<path d="M689.311 315.406C703.099 263.948 672.562 211.055 621.104 197.267C569.646 183.479 516.754 214.016 502.966 265.474C489.177 316.932 519.715 369.825 571.173 383.613C622.631 397.401 675.523 366.863 689.311 315.406Z" fill="#E5F3AD"/>
<path d="M720.206 200.104C733.994 148.646 703.457 95.7537 651.999 81.9656C600.541 68.1775 547.649 98.7149 533.861 150.173C520.072 201.631 550.61 254.523 602.068 268.311C653.526 282.099 706.418 251.562 720.206 200.104Z" fill="#E5F3AD"/>
<path d="M807.583 345.693C821.371 294.235 790.834 241.343 739.376 227.555C687.918 213.766 635.025 244.304 621.237 295.762C607.449 347.22 637.987 400.112 689.445 413.9C740.902 427.688 793.795 397.151 807.583 345.693Z" fill="#E5F3AD"/>
<path d="M838.127 231.701C851.915 180.243 821.378 127.35 769.92 113.562C718.462 99.7743 665.57 130.312 651.781 181.77C637.993 233.228 668.531 286.12 719.989 299.908C771.447 313.696 824.339 283.159 838.127 231.701Z" fill="#E5F3AD"/>
<path d="M659.65 306.517L691.167 188.894" stroke="#26BF00" stroke-width="2" stroke-miterlimit="10"/>
<path d="M616.448 231.907L733.728 263.332" stroke="#26BF00" stroke-width="2" stroke-miterlimit="10"/>
<circle cx="100" cy="112" r="212" stroke="white" stroke-opacity="0.65" stroke-width="20"/>
<circle cx="609" cy="757" r="130" stroke="white" stroke-opacity="0.5" stroke-width="4"/>
<circle cx="741" cy="813" r="90.5" stroke="white" stroke-opacity="0.5" stroke-width="3"/>
<circle cx="1887" cy="987" r="208" stroke="white" stroke-opacity="0.65" stroke-width="28"/>
<path d="M1227.86 823.51C1244.6 847.755 1277.82 853.841 1302.07 837.103C1326.31 820.366 1332.4 787.144 1315.66 762.899C1298.93 738.654 1265.7 732.568 1241.46 749.306C1217.21 766.043 1211.13 799.265 1227.86 823.51Z" fill="white" fill-opacity="0.61"/>
<path d="M1265.37 877.835C1282.11 902.08 1315.33 908.166 1339.57 891.429C1363.82 874.691 1369.9 841.469 1353.17 817.224C1336.43 792.979 1303.21 786.894 1278.96 803.631C1254.72 820.368 1248.63 853.591 1265.37 877.835Z" fill="white" fill-opacity="0.61"/>
<path d="M1172.73 862.483C1189.47 886.727 1222.69 892.813 1246.94 876.076C1271.18 859.339 1277.27 826.116 1260.53 801.871C1243.79 777.627 1210.57 771.541 1186.33 788.278C1162.08 805.016 1155.99 838.238 1172.73 862.483Z" fill="white" fill-opacity="0.61"/>
<path d="M1209.81 916.191C1226.55 940.435 1259.77 946.521 1284.01 929.784C1308.26 913.047 1314.34 879.824 1297.61 855.579C1280.87 831.335 1247.65 825.249 1223.4 841.986C1199.16 858.724 1193.07 891.946 1209.81 916.191Z" fill="white" fill-opacity="0.61"/>
<path d="M1268.52 805.332L1256.39 871.572" stroke="white" stroke-width="3" stroke-miterlimit="10"/>
<path d="M1295.66 844.534L1229.6 832.434" stroke="white" stroke-width="3" stroke-miterlimit="10"/>
</svg>
