<svg width="440" height="430" viewBox="0 0 440 430" fill="none" xmlns="http://www.w3.org/2000/svg">
<rect x="0.74033" y="163.631" width="436" height="125" rx="19.5" transform="rotate(-1.19865 0.74033 163.631)" fill="black"/>
<rect x="0.74033" y="163.631" width="436" height="125" rx="19.5" transform="rotate(-1.19865 0.74033 163.631)" stroke="#33FF00"/>
<path d="M62.4018 200.649L92.1453 200.027L92.3005 207.445L62.5571 208.067L62.4018 200.649ZM62.9967 232.424L61.8587 224.886C63.9116 224.843 66.2211 224.794 68.7872 224.741C71.399 224.639 74.1036 224.513 76.901 224.361C79.7442 224.161 82.5635 223.939 85.3589 223.694C88.1534 223.402 90.7837 223.067 93.2496 222.689L93.8801 229.397C90.5831 230.213 87.0251 230.824 83.2061 231.231C79.4338 231.636 75.7756 231.923 72.2317 232.09C68.7344 232.257 65.6561 232.368 62.9967 232.424ZM66.4949 205.535L74.8931 205.359L75.3412 226.774L66.943 226.95L66.4949 205.535ZM79.862 205.255L88.2602 205.079L88.7083 226.494L80.3101 226.67L79.862 205.255ZM108.199 194.3L117.017 194.115L117.937 238.066L109.119 238.25L108.199 194.3ZM101.034 209.923L111.252 209.709L111.409 217.198L101.191 217.411L101.034 209.923ZM95.1368 195.763L103.815 195.582L104.592 232.744L95.9144 232.925L95.1368 195.763ZM90.9311 235.69L98.8394 235.524L98.873 237.134C98.9306 239.887 98.4249 242.488 97.356 244.938C96.287 247.387 94.6765 249.615 92.5247 251.62C90.4185 253.578 87.8161 255.243 84.7175 256.615C81.6188 257.986 78.0453 258.971 73.9969 259.569L70.5583 252.5C73.3508 252.115 75.8595 251.549 78.0844 250.802C80.3093 250.055 82.228 249.175 83.8404 248.161C85.4529 247.147 86.7835 246.046 87.8322 244.857C88.9275 243.667 89.7186 242.437 90.2055 241.166C90.739 239.895 90.9921 238.606 90.9648 237.3L90.9311 235.69ZM92.2608 235.662L100.169 235.497L100.203 237.106C100.23 238.413 100.514 239.69 101.053 240.939C101.639 242.187 102.481 243.383 103.579 244.527C104.723 245.67 106.122 246.715 107.775 247.66C109.429 248.606 111.359 249.406 113.567 250.06C115.821 250.713 118.351 251.173 121.157 251.441L118.017 258.648C114.789 258.296 111.812 257.681 109.087 256.805C106.408 255.927 104.028 254.834 101.947 253.523C99.913 252.259 98.1783 250.778 96.7425 249.081C95.3067 247.384 94.2179 245.54 93.476 243.548C92.7342 241.557 92.3404 239.465 92.2945 237.272L92.2608 235.662ZM131.254 195.498L179.613 194.486L179.76 201.484L131.4 202.496L131.254 195.498ZM132.061 210.674L179.371 209.684L179.517 216.683L132.208 217.673L132.061 210.674ZM139.569 198.054L148.877 197.86L149.231 214.796L139.923 214.991L139.569 198.054ZM162.104 197.583L171.412 197.388L171.766 214.324L162.458 214.519L162.104 197.583ZM126.678 221.079L185.325 219.852L185.477 227.13L126.83 228.357L126.678 221.079ZM133.623 231.786L178.414 230.849L178.752 247.015L143.27 247.758L143.395 253.776L134.157 253.97L133.901 241.722L169.453 240.979L169.385 237.689L133.762 238.435L133.623 231.786ZM134.103 251.38L180.573 250.408L180.715 257.196L134.245 258.169L134.103 251.38ZM193.19 234.601L197.809 234.504C201.728 234.422 205.482 234.25 209.07 233.988C212.705 233.679 216.521 233.156 220.52 232.418L221.447 239.891C217.356 240.723 213.424 241.272 209.648 241.538C205.92 241.803 202.026 241.977 197.967 242.062L193.348 242.159L193.19 234.601ZM192.303 198.911L215.258 198.431L215.776 223.206L201.989 223.494L202.278 237.281L193.25 237.47L192.808 216.335L206.665 216.045L206.454 205.967L192.457 206.26L192.303 198.911ZM237.308 191.528L246.196 191.342L247.552 256.148L238.664 256.334L237.308 191.528ZM218.244 213.982L228.252 213.773L228.411 221.401L218.404 221.61L218.244 213.982ZM224.176 192.993L232.784 192.813L234.051 253.35L225.443 253.53L224.176 192.993ZM299.378 190.16L308.686 189.965L310.046 254.981L300.738 255.175L299.378 190.16ZM273.859 195.244C277.171 195.175 280.131 196.07 282.737 197.929C285.342 199.742 287.404 202.383 288.924 205.852C290.489 209.273 291.321 213.34 291.42 218.052C291.519 222.811 290.859 226.956 289.439 230.486C288.065 233.969 286.115 236.694 283.589 238.66C281.062 240.58 278.142 241.575 274.829 241.644C271.564 241.713 268.628 240.841 266.023 239.028C263.417 237.169 261.331 234.528 259.766 231.107C258.246 227.638 257.437 223.524 257.337 218.765C257.238 214.053 257.876 209.955 259.25 206.473C260.67 202.942 262.644 200.217 265.171 198.297C267.697 196.33 270.593 195.313 273.859 195.244ZM274.036 203.713C272.45 203.746 271.062 204.335 269.872 205.48C268.682 206.625 267.76 208.302 267.106 210.509C266.498 212.669 266.228 215.359 266.295 218.578C266.361 221.75 266.745 224.45 267.445 226.676C268.19 228.854 269.182 230.49 270.418 231.584C271.655 232.679 273.066 233.209 274.652 233.176C276.285 233.142 277.697 232.552 278.886 231.407C280.076 230.262 280.974 228.586 281.582 226.38C282.235 224.126 282.528 221.412 282.462 218.24C282.394 215.02 281.988 212.345 281.243 210.213C280.544 208.034 279.577 206.397 278.34 205.303C277.104 204.209 275.669 203.678 274.036 203.713ZM343.473 193.088L351.522 192.919L351.62 197.608C351.678 200.408 351.339 203.145 350.601 205.821C349.909 208.45 348.841 210.946 347.397 213.31C345.953 215.674 344.154 217.836 342.002 219.794C339.895 221.706 337.455 223.367 334.684 224.779C331.913 226.19 328.855 227.258 325.509 227.981L321.358 220.296C324.24 219.723 326.86 218.898 329.218 217.821C331.621 216.698 333.717 215.37 335.506 213.839C337.294 212.308 338.8 210.666 340.024 208.913C341.246 207.114 342.141 205.275 342.709 203.396C343.322 201.469 343.609 199.596 343.571 197.777L343.473 193.088ZM345.293 193.05L353.411 192.88L353.509 197.569C353.548 199.435 353.891 201.318 354.538 203.219C355.231 205.118 356.203 206.941 357.453 208.689C358.749 210.389 360.321 211.943 362.171 213.351C364.021 214.759 366.147 215.975 368.549 216.998C370.95 217.975 373.649 218.689 376.646 219.14L372.819 226.991C369.446 226.408 366.346 225.47 363.518 224.175C360.69 222.881 358.161 221.323 355.929 219.503C353.743 217.682 351.856 215.621 350.268 213.32C348.726 211.018 347.531 208.546 346.682 205.903C345.88 203.26 345.45 200.538 345.391 197.739L345.293 193.05ZM320.352 239.152L379.069 237.923L379.229 245.551L320.511 246.78L320.352 239.152Z" fill="#33FF00"/>
<rect x="72.8975" width="362.982" height="115.307" rx="20" transform="rotate(6.22729 72.8975 0)" fill="black"/>
<path d="M182.27 95.0965C178.847 96.3157 174.515 96.6394 169.275 96.0676C162.441 95.3219 157.286 92.7265 153.81 88.2816C150.334 83.8367 148.961 78.2695 149.691 71.58C150.468 64.4557 153.294 58.917 158.168 54.9641C163.063 51.0134 169.021 49.4211 176.042 50.1872C180.391 50.6617 183.997 51.6106 186.86 53.0336L185.805 62.695C183.017 60.5885 179.718 59.3274 175.907 58.9115C171.724 58.4551 168.205 59.4018 165.349 61.7518C162.494 64.1018 160.822 67.5239 160.331 72.018C159.861 76.3258 160.698 79.8959 162.841 82.7284C164.986 85.5402 168.109 87.1698 172.209 87.6173C176.124 88.0444 179.81 87.4827 183.27 85.9321L182.27 95.0965ZM207.797 100.271C201.418 99.5749 196.446 96.9367 192.88 92.3562C189.316 87.755 187.898 82.12 188.626 75.4512C189.394 68.4097 192.056 62.9369 196.61 59.0329C201.165 55.129 206.807 53.5442 213.538 54.2786C219.896 54.9724 224.805 57.6142 228.265 62.2042C231.746 66.7963 233.115 72.4993 232.371 79.313C231.607 86.3131 228.952 91.7341 224.404 95.5759C219.877 99.4201 214.341 100.985 207.797 100.271ZM212.316 62.8844C208.795 62.5002 205.855 63.5206 203.495 65.9455C201.137 68.3498 199.72 71.7265 199.246 76.0757C198.764 80.487 199.419 84.0897 201.21 86.8837C203.001 89.6778 205.574 91.2579 208.929 91.624C212.387 92.0014 215.267 91.0582 217.568 88.7944C219.871 86.5099 221.264 83.1517 221.748 78.7196C222.252 74.1012 221.66 70.4006 219.973 67.6178C218.286 64.8351 215.733 63.2572 212.316 62.8844ZM249.04 88.4563L247.366 103.803L237.332 102.708L242.193 58.1598L257.912 59.875C269.137 61.0998 274.233 66.4446 273.2 75.9092C272.712 80.3827 270.701 83.8307 267.168 86.2534C263.657 88.6576 259.209 89.5659 253.824 88.9783L249.04 88.4563ZM251.386 66.9589L249.871 80.8452L253.816 81.2758C259.159 81.8588 262.086 79.81 262.597 75.1295C263.097 70.5525 260.675 67.9725 255.331 67.3894L251.386 66.9589ZM303.129 109.887L276.412 106.972L281.273 62.4241L306.964 65.2274L306.073 73.3977L290.416 71.6892L289.334 81.5992L303.904 83.189L303.016 91.3282L288.446 89.7384L287.334 99.9279L304.017 101.748L303.129 109.887ZM346.085 77.7637L333.379 76.3773L329.41 112.755L319.345 111.657L323.314 75.279L310.671 73.8994L311.562 65.7291L346.977 69.5935L346.085 77.7637Z" fill="#FFD159"/>
<rect x="27.48" y="304" width="353" height="126" rx="20" fill="black"/>
<path d="M167.045 341.05H176.845C176.845 346.743 175.679 351.83 173.345 356.31C171.059 360.79 167.722 364.617 163.335 367.79C158.995 370.917 153.652 373.367 147.305 375.14L143.735 367.86C148.915 366.46 153.232 364.663 156.685 362.47C160.139 360.23 162.729 357.687 164.455 354.84C166.182 351.947 167.045 348.82 167.045 345.46V341.05ZM147.235 341.05H173.555V348.47H147.235V341.05ZM188.325 337.34H197.705V373.6H188.325V337.34ZM177.195 352.74H189.655V360.3H177.195V352.74ZM154.935 376.26H197.705V401.53H154.935V376.26ZM188.535 383.54H164.105V394.18H188.535V383.54ZM219.47 341.05H226.75V348.54C226.75 352.227 226.237 355.82 225.21 359.32C224.183 362.82 222.573 365.947 220.38 368.7C218.233 371.453 215.387 373.6 211.84 375.14L206.94 367.93C209.927 366.577 212.33 364.85 214.15 362.75C216.017 360.65 217.37 358.363 218.21 355.89C219.05 353.417 219.47 350.967 219.47 348.54V341.05ZM221.22 341.05H228.5V348.54C228.5 350.92 228.897 353.253 229.69 355.54C230.483 357.78 231.767 359.833 233.54 361.7C235.313 363.567 237.623 365.107 240.47 366.32L235.57 373.39C232.21 371.99 229.457 370.03 227.31 367.51C225.21 364.943 223.67 362.05 222.69 358.83C221.71 355.563 221.22 352.133 221.22 348.54V341.05ZM254.19 337.41H263.08V376.75H254.19V337.41ZM246.49 353.16H256.78V360.65H246.49V353.16ZM240.54 338.39H249.22V376.4H240.54V338.39ZM218.49 379.55H263.08V402.23H253.77V386.97H218.49V379.55Z" fill="white"/>
</svg>
