<svg width="1982" height="762" viewBox="0 0 1982 762" fill="none" xmlns="http://www.w3.org/2000/svg">
<path d="M27.3087 580.609L36.3226 583.634L33.5168 621.896L48.2993 587.635L57.2014 590.618L35.7884 637.795L24.773 634.1L27.825 597.168L12.1722 629.884L1.15685 626.189L6.44704 573.607L15.3491 576.59L10.862 614.29L27.3258 580.591L27.3087 580.609Z" fill="white" stroke="#231815"/>
<path d="M93.4254 597.948L83.5875 649.722L74.1458 647.348L78.6427 623.68L63.5166 619.883L59.0197 643.551L49.578 641.176L59.4159 589.402L68.8735 591.778L64.9905 612.188L80.1166 615.984L83.9994 595.574L93.4413 597.949L93.4254 597.948Z" fill="white" stroke="#231815"/>
<path d="M89.9094 651.064L110.071 601.465L121.157 603.049L129.333 656.722L119.809 655.36L118 642.441L104.105 640.445L99.4015 652.443L89.8771 651.081L89.9094 651.064ZM107.472 631.745L116.715 633.075L114.177 614.66L107.471 631.764L107.472 631.745Z" fill="white" stroke="#231815"/>
<path d="M164.916 611.766L153.317 611.992L153.381 656.007L143.713 656.195L143.649 612.18L131.813 612.413L131.799 604.711L164.901 604.064L164.916 611.766Z" fill="white" stroke="#231815"/>
<path d="M201.454 602.251L195.853 604.051L203.794 637.613L209.395 635.812L211.451 644.487L190.732 651.179L188.676 642.504L194.277 640.703L186.337 607.142L180.736 608.942L178.99 601.536L199.709 594.845L201.454 602.251Z" fill="white" stroke="#231815"/>
<path d="M206.025 606.304C205.424 604.76 205.127 603.085 205.15 601.279C205.157 599.472 205.508 597.682 206.206 595.871C206.903 594.061 207.972 592.341 209.43 590.694C210.888 589.048 212.775 587.622 215.076 586.381C217.2 585.24 219.242 584.497 221.187 584.151C223.132 583.805 224.917 583.854 226.544 584.259C228.171 584.683 229.607 585.481 230.853 586.654C232.099 587.826 233.077 589.351 233.788 591.228L234.821 593.906L226.262 598.483L225.229 595.806C224.976 595.173 224.644 594.573 224.2 594.023C223.756 593.473 223.227 593.046 222.598 592.761C221.968 592.475 221.253 592.35 220.467 592.386C219.682 592.422 218.79 592.708 217.841 593.21C216.023 594.183 214.804 595.421 214.184 596.925C213.564 598.429 213.582 600.036 214.238 601.746C214.74 603.066 215.462 604.031 216.405 604.642C217.348 605.271 218.379 605.684 219.512 605.921C220.646 606.157 221.802 606.248 223.011 606.214C224.22 606.162 225.304 606.122 226.279 606.077C228.507 606.037 230.496 606.095 232.276 606.252C234.056 606.409 235.623 606.757 236.962 607.295C238.3 607.834 239.485 608.638 240.472 609.652C241.474 610.685 242.289 612.02 242.931 613.693C243.672 615.59 244.019 617.523 243.988 619.493C243.959 621.445 243.555 623.342 242.811 625.15C242.067 626.959 240.951 628.658 239.481 630.231C238.011 631.804 236.205 633.179 234.034 634.335C231.395 635.744 229.002 636.616 226.855 636.915C224.708 637.215 222.817 637.089 221.181 636.537C219.545 635.985 218.132 635.042 216.955 633.727C215.779 632.411 214.85 630.834 214.152 629.012L213.189 626.502L221.845 621.875L222.166 622.711C223.004 624.887 224.191 626.294 225.699 626.895C227.208 627.495 229.007 627.252 231.066 626.145C231.887 625.709 232.557 625.139 233.059 624.469C233.561 623.799 233.925 623.068 234.149 622.312C234.373 621.556 234.458 620.757 234.417 619.952C234.377 619.147 234.21 618.372 233.93 617.665C233.524 616.642 232.997 615.851 232.347 615.327C231.698 614.803 230.9 614.437 229.999 614.248C229.099 614.06 228.083 613.993 226.968 614.032C225.852 614.088 224.595 614.138 223.212 614.2C221.514 614.302 219.803 614.331 218.095 614.305C216.388 614.278 214.784 614.038 213.271 613.547C211.757 613.055 210.368 612.259 209.104 611.14C207.84 610.022 206.803 608.403 205.993 606.302L206.025 606.304Z" fill="white" stroke="#231815"/>
<path d="M291.296 571.083L292.76 573.345C295.506 577.587 296.445 581.707 295.588 585.761C294.733 589.796 291.905 593.774 287.121 597.678C282.321 601.58 278.023 603.424 274.179 603.205C270.351 602.988 267.073 600.749 264.326 596.525L253.582 579.929C250.836 575.687 249.932 571.532 250.871 567.428C251.811 563.324 254.672 559.33 259.457 555.408C264.257 551.506 268.521 549.697 272.265 549.983C276.008 550.269 279.253 552.524 282 556.767L282.89 558.131L275.361 564.26L274.275 562.578C272.917 560.484 271.27 559.356 269.35 559.21C267.429 559.065 265.434 559.822 263.395 561.5C261.34 563.178 260.169 564.989 259.848 566.966C259.529 568.925 260.048 570.961 261.421 573.073L271.894 589.239C273.252 591.332 274.849 592.495 276.684 592.727C278.52 592.941 280.449 592.217 282.503 590.557C284.558 588.879 285.712 587.086 285.964 585.178C286.217 583.27 285.665 581.251 284.307 579.158L283.326 577.644L291.327 571.121L291.296 571.083Z" fill="white" stroke="#231815"/>
<path d="M318.128 567.714C313.822 572.126 309.836 574.382 306.2 574.501C302.549 574.62 299.259 572.713 296.316 568.742L284.748 553.16C281.804 549.207 280.627 545.101 281.248 540.879C281.853 536.657 284.316 532.359 288.622 527.947C292.929 523.535 296.915 521.279 300.55 521.16C304.201 521.041 307.491 522.948 310.434 526.919L322.003 542.501C324.946 546.472 326.058 550.612 325.356 554.921C324.652 559.248 322.238 563.512 318.129 567.696L318.128 567.714ZM313.163 561.038C315.062 559.103 316.091 557.127 316.248 555.127C316.405 553.128 315.751 551.145 314.286 549.178L303.011 533.993C301.546 532.026 300.007 530.968 298.364 530.799C296.721 530.63 294.883 531.601 292.837 533.675C290.792 535.749 289.73 537.779 289.638 539.708C289.547 541.638 290.233 543.586 291.698 545.553L302.974 560.738C304.438 562.705 306.042 563.711 307.784 563.775C309.525 563.858 311.314 562.921 313.163 561.038Z" fill="white" stroke="#231815"/>
<path d="M333.175 527.29L343.917 540.412L336.943 548.214L306.625 511.187L318.426 497.971C322.354 493.566 326.119 491.291 329.719 491.149C333.319 491.006 336.728 492.901 339.946 496.834C343.135 500.728 344.598 504.781 344.32 508.972C344.042 513.182 341.931 517.471 338.003 521.876L333.175 527.29ZM333.938 515.856C335.453 514.158 336.059 512.342 335.757 510.392C335.456 508.441 334.582 506.593 333.138 504.809C331.499 502.814 329.855 501.574 328.192 501.09C326.528 500.605 324.938 501.23 323.391 502.946L318.115 508.855L328.663 521.728L333.94 515.819L333.938 515.856Z" fill="white" stroke="#231815"/>
<path d="M354.629 457.272L359.208 462.781L345.704 478.578L353.536 487.982L366.155 473.227L370.735 478.736L358.115 493.491L366.529 503.595L380.485 487.258L385.854 493.721L364.972 518.144L334.181 481.174L354.613 457.271L354.629 457.272Z" fill="white" stroke="#231815"/>
<path d="M385.351 433.763L376.814 443.204L403.498 474.338L396.376 482.196L369.692 451.063L360.984 460.679L356.318 455.233L380.684 428.316L385.351 433.763Z" fill="white" stroke="#231815"/>
<path d="M410.578 396.079L417.768 389.091L444.412 412.009L427.328 379.797L434.433 372.897L457.38 418.254L448.571 426.808L423.058 404.369L438.517 436.577L429.708 445.132L393.897 412.272L401.002 405.373L426.3 429.592L410.561 396.078L410.578 396.079Z" fill="white" stroke="#231815"/>
<path d="M470.183 344.401L495.442 387.134L487.321 393.659L475.783 374.133L462.793 384.581L474.33 404.108L466.209 410.633L440.95 367.9L449.071 361.374L459.02 378.218L472.011 367.77L462.062 350.926L470.183 344.401Z" fill="white" stroke="#231815"/>
<path d="M495.913 384.265L488.684 331.232L498.872 325.231L532.132 362.915L523.378 368.07L515.513 358.876L502.753 366.399L504.651 379.109L495.897 384.264L495.913 384.265ZM501.329 357.236L509.819 352.232L498.63 339.118L501.329 357.236Z" fill="white" stroke="#231815"/>
<path d="M547.98 310.633L536.98 315.247L549.131 357.151L539.956 360.993L527.805 319.089L516.595 323.787L514.473 316.459L545.857 303.306L547.98 310.633Z" fill="white" stroke="#231815"/>
<path d="M591.736 302.209L586.013 303.16L589.967 337.831L595.69 336.879L596.708 345.84L575.546 349.395L574.527 340.435L580.25 339.483L576.296 304.812L570.573 305.764L569.7 298.125L590.863 294.57L591.736 302.209Z" fill="white" stroke="#231815"/>
<path d="M598.661 304.745C598.696 302.994 599.066 301.295 599.756 299.631C600.446 297.966 601.449 296.466 602.782 295.149C604.098 293.831 605.74 292.771 607.707 291.987C609.673 291.204 611.942 290.827 614.528 290.875C616.922 290.913 619.076 291.258 620.99 291.927C622.903 292.596 624.53 293.55 625.871 294.77C627.212 295.99 628.235 297.474 628.924 299.204C629.614 300.934 629.941 302.852 629.906 304.958L629.843 307.977L620.25 307.858L620.313 304.839C620.331 304.131 620.237 303.399 620.046 302.663C619.856 301.927 619.518 301.258 619.047 300.676C618.577 300.094 617.972 299.618 617.234 299.247C616.496 298.876 615.573 298.683 614.496 298.67C612.455 298.647 610.855 299.168 609.727 300.253C608.582 301.336 607.996 302.838 607.954 304.757C607.916 306.229 608.226 307.493 608.851 308.549C609.476 309.604 610.268 310.537 611.227 311.328C612.17 312.119 613.215 312.803 614.329 313.378C615.46 313.954 616.48 314.468 617.391 314.922C619.445 316.026 621.259 317.101 622.85 318.146C624.424 319.191 625.737 320.316 626.773 321.522C627.809 322.727 628.583 324.051 629.108 325.512C629.634 326.973 629.876 328.645 629.835 330.526C629.782 332.669 629.383 334.646 628.606 336.455C627.828 338.265 626.759 339.8 625.378 341.115C623.998 342.411 622.343 343.414 620.395 344.142C618.448 344.871 616.262 345.196 613.836 345.156C610.864 345.108 608.344 344.69 606.26 343.883C604.176 343.075 602.491 341.988 601.188 340.639C599.886 339.291 598.948 337.698 598.375 335.88C597.802 334.063 597.524 332.128 597.574 330.06L597.643 327.247L607.364 327.372L607.352 328.304C607.3 330.764 607.853 332.655 609.027 333.998C610.202 335.341 611.938 336.02 614.252 336.036C615.184 336.043 615.996 335.876 616.721 335.5C617.447 335.124 618.048 334.649 618.542 334.057C619.037 333.465 619.423 332.775 619.685 331.985C619.948 331.196 620.097 330.419 620.119 329.618C620.142 328.463 619.948 327.465 619.554 326.626C619.143 325.786 618.566 325.068 617.809 324.417C617.052 323.784 616.147 323.2 615.095 322.665C614.043 322.131 612.865 321.553 611.577 320.913C609.974 320.129 608.39 319.289 606.824 318.412C605.259 317.518 603.878 316.464 602.666 315.231C601.453 314.017 600.494 312.554 599.754 310.859C599.015 309.164 598.676 307.152 598.724 304.786L598.661 304.745Z" fill="white" stroke="#231815"/>
<path d="M684.774 339.861L684.197 342.647C683.119 347.872 680.997 351.473 677.876 353.454C674.74 355.434 670.458 355.657 665.028 354.14C659.599 352.624 655.784 350.13 653.613 346.658C651.442 343.186 650.895 338.848 651.972 333.623L656.216 313.149C657.293 307.925 659.446 304.325 662.673 302.368C665.901 300.41 670.229 300.19 675.657 301.724C681.086 303.24 684.855 305.733 686.936 309.163C689.016 312.612 689.517 316.949 688.44 322.173L688.099 323.86L679.576 321.475L680.013 319.404C680.55 316.82 680.284 314.642 679.216 312.869C678.147 311.097 676.452 309.906 674.118 309.24C671.797 308.594 669.898 308.781 668.434 309.841C666.971 310.901 665.962 312.722 665.425 315.307L661.283 335.268C660.745 337.852 660.965 340.028 661.928 341.758C662.89 343.488 664.54 344.677 666.859 345.343C669.18 345.989 671.049 345.782 672.436 344.718C673.823 343.655 674.801 341.813 675.339 339.229L675.736 337.341L684.804 339.881L684.774 339.861Z" fill="white" stroke="#231815"/>
<path d="M700.425 365.098C694.953 363.216 691.233 360.514 689.247 356.993C687.262 353.472 686.945 349.218 688.314 344.197L693.678 324.503C695.046 319.5 697.419 316.167 700.828 314.507C704.237 312.847 708.661 312.966 714.118 314.848C719.574 316.73 723.31 319.432 725.295 322.954C727.28 326.475 727.596 330.746 726.228 335.75L720.865 355.444C719.496 360.447 717.046 363.758 713.529 365.377C709.996 366.995 705.634 366.896 700.425 365.098ZM702.726 356.658C705.137 357.494 707.119 357.443 708.655 356.524C710.206 355.606 711.308 353.908 711.991 351.416L717.221 332.22C717.905 329.728 717.863 327.633 717.126 325.939C716.39 324.245 714.724 322.939 712.143 322.041C709.562 321.144 707.534 321.174 706.076 322.115C704.617 323.055 703.546 324.772 702.878 327.266L697.648 346.461C696.964 348.954 697.068 351.069 697.929 352.805C698.788 354.559 700.393 355.826 702.727 356.64L702.726 356.658Z" fill="white" stroke="#231815"/>
<path d="M737.416 358.282L732.188 374.935L723.025 371.489L737.773 324.479L753.289 330.317C758.451 332.262 761.914 334.995 763.662 338.533C765.411 342.07 765.497 346.326 763.935 351.319C762.375 356.259 759.936 359.545 756.57 361.157C753.204 362.769 748.948 362.602 743.787 360.657L737.449 358.266L737.416 358.282ZM746.566 353.897C748.559 354.647 750.23 354.425 751.579 353.249C752.944 352.074 753.968 350.368 754.682 348.099C755.473 345.568 755.689 343.363 755.299 341.485C754.925 339.607 753.71 338.291 751.686 337.522L744.752 334.908L739.617 351.265L746.551 353.879L746.566 353.897Z" fill="white" stroke="#231815"/>
<path d="M802.456 349.435L800.087 356.642L781.785 349.281L777.753 361.581L794.852 368.463L792.483 375.67L775.384 368.788L771.047 382.009L789.959 389.619L787.188 398.072L758.893 386.679L774.786 338.31L802.471 349.454L802.456 349.435Z" fill="white" stroke="#231815"/>
<path d="M833.88 371.09L822.839 366.428L809.11 407.565L799.901 403.689L813.629 362.552L802.365 357.807L804.769 350.6L836.283 363.902L833.879 371.108L833.88 371.09Z" fill="white" stroke="#231815"/>
<path d="M872.795 380.73L881.544 384.435L876.315 421.627L893.168 389.35L901.806 393.015L877.561 437.378L866.858 432.852L872.251 396.996L854.63 427.69L843.928 423.165L852.548 372.187L861.186 375.852L854.32 412.365L872.809 380.785L872.795 380.73Z" fill="white" stroke="#231815"/>
<path d="M936.637 408.005L921.225 456.355L912.571 452.468L919.616 430.377L905.758 424.164L898.712 446.255L890.058 442.368L905.471 394.018L914.124 397.905L908.043 416.951L921.902 423.164L927.983 404.118L936.637 408.005Z" fill="white" stroke="#231815"/>
<path d="M924.857 458.055L954.234 414.444L964.893 418.937L962.778 474.024L953.623 470.164L954.298 456.942L940.942 451.311L934.012 461.896L924.857 458.036L924.857 458.055ZM945.895 443.627L954.783 447.38L955.788 428.539L945.895 443.627Z" fill="white" stroke="#231815"/>
<path d="M1005.14 443.745L993.934 439.339L980.901 480.921L971.555 477.249L984.588 435.666L973.172 431.176L975.447 423.903L1007.42 436.472L1005.14 443.745Z" fill="white" stroke="#231815"/>
<path d="M1042.31 457.617L1036.8 455.645L1027.32 488.497L1032.83 490.47L1030.38 498.966L1010.03 491.701L1012.47 483.205L1017.98 485.178L1027.46 452.325L1021.95 450.353L1024.03 443.114L1044.39 450.378L1042.31 457.617Z" fill="white" stroke="#231815"/>
<path d="M1042.69 462.894C1043.13 461.185 1043.88 459.623 1044.95 458.191C1046.02 456.759 1047.34 455.585 1048.94 454.692C1050.55 453.798 1052.41 453.259 1054.5 453.111C1056.6 452.963 1058.93 453.283 1061.45 454.125C1063.8 454.901 1065.82 455.91 1067.55 457.171C1069.27 458.431 1070.66 459.866 1071.68 461.493C1072.72 463.12 1073.38 464.9 1073.66 466.815C1073.95 468.749 1073.82 470.74 1073.3 472.787L1072.54 475.736L1063.14 472.629L1063.9 469.661C1064.09 468.966 1064.17 468.21 1064.14 467.429C1064.11 466.629 1063.95 465.88 1063.62 465.161C1063.3 464.442 1062.82 463.773 1062.17 463.19C1061.53 462.59 1060.68 462.131 1059.61 461.776C1057.61 461.111 1055.93 461.145 1054.55 461.859C1053.19 462.574 1052.25 463.88 1051.77 465.759C1051.39 467.205 1051.39 468.555 1051.78 469.79C1052.14 471.024 1052.71 472.192 1053.45 473.273C1054.2 474.354 1055.06 475.345 1056.04 476.266C1057.01 477.187 1057.89 478.008 1058.68 478.749C1060.44 480.468 1061.98 482.1 1063.29 483.626C1064.6 485.152 1065.61 486.664 1066.36 488.164C1067.1 489.663 1067.56 491.225 1067.73 492.83C1067.92 494.436 1067.77 496.16 1067.29 498C1066.75 500.104 1065.89 501.927 1064.72 503.468C1063.54 505.01 1062.12 506.197 1060.47 507.07C1058.82 507.923 1056.96 508.405 1054.88 508.516C1052.81 508.608 1050.59 508.275 1048.21 507.497C1045.3 506.541 1042.93 505.326 1041.06 503.887C1039.21 502.449 1037.79 500.842 1036.82 499.104C1035.85 497.365 1035.3 495.495 1035.16 493.53C1035.01 491.564 1035.2 489.558 1035.72 487.548L1036.43 484.787L1045.94 487.918L1045.7 488.839C1045.08 491.243 1045.19 493.302 1046.02 494.976C1046.86 496.651 1048.41 497.866 1050.67 498.62C1051.58 498.91 1052.43 498.988 1053.22 498.855C1054.02 498.721 1054.72 498.431 1055.35 497.986C1055.98 497.559 1056.51 496.995 1056.96 496.313C1057.4 495.63 1057.72 494.884 1057.93 494.096C1058.23 492.951 1058.27 491.906 1058.08 490.966C1057.88 490.025 1057.48 489.112 1056.88 488.247C1056.28 487.382 1055.53 486.529 1054.62 485.687C1053.71 484.845 1052.7 483.904 1051.57 482.861C1050.18 481.598 1048.81 480.278 1047.48 478.903C1046.15 477.528 1045.04 476.068 1044.15 474.486C1043.23 472.902 1042.63 471.162 1042.29 469.264C1041.95 467.366 1042.09 465.261 1042.69 462.932L1042.69 462.894Z" fill="white" stroke="#231815"/>
<path d="M1122.91 506.103L1122.42 508.918C1121.5 514.197 1119.53 517.905 1116.49 520.023C1113.44 522.141 1109.21 522.571 1103.8 521.295C1098.37 520.018 1094.55 517.685 1092.29 514.333C1090.03 510.962 1089.36 506.627 1090.28 501.348L1093.86 480.654C1094.78 475.375 1096.79 471.687 1099.93 469.573C1103.07 467.46 1107.33 467.049 1112.75 468.327C1118.18 469.604 1121.96 471.916 1124.12 475.264C1126.29 478.612 1126.92 482.926 1126 488.205L1125.71 489.916L1117.2 487.918L1117.56 485.82C1118.02 483.209 1117.68 481.041 1116.58 479.32C1115.46 477.598 1113.75 476.478 1111.43 475.923C1109.12 475.387 1107.25 475.67 1105.83 476.789C1104.41 477.909 1103.47 479.774 1103.03 482.405L1099.53 502.566C1099.08 505.178 1099.35 507.342 1100.37 509.022C1101.37 510.72 1103.03 511.837 1105.35 512.374C1107.66 512.91 1109.5 512.626 1110.84 511.485C1112.19 510.343 1113.08 508.475 1113.54 505.845L1113.87 503.95L1122.91 506.085L1122.91 506.103Z" fill="white" stroke="#231815"/>
<path d="M1146.6 527.398C1140.86 527.052 1136.66 525.398 1133.98 522.435C1131.31 519.473 1130.12 515.295 1130.43 509.899L1131.62 488.672C1131.92 483.277 1133.58 479.252 1136.56 476.633C1139.56 474.014 1143.92 472.877 1149.66 473.224C1155.4 473.571 1159.59 475.225 1162.28 478.187C1164.94 481.149 1166.13 485.328 1165.83 490.742L1164.63 511.969C1164.33 517.364 1162.61 521.386 1159.49 523.999C1156.37 526.612 1152.07 527.751 1146.6 527.417L1146.6 527.398ZM1147.11 518.282C1149.64 518.44 1151.56 517.841 1152.89 516.486C1154.21 515.131 1154.96 513.114 1155.1 510.435L1156.27 489.748C1156.43 487.069 1155.96 484.976 1154.89 483.489C1153.83 481.984 1151.93 481.166 1149.21 481C1146.49 480.834 1144.52 481.431 1143.29 482.79C1142.06 484.149 1141.36 486.168 1141.22 488.848L1140.05 509.535C1139.89 512.213 1140.42 514.309 1141.63 515.821C1142.83 517.334 1144.66 518.147 1147.11 518.301L1147.11 518.282Z" fill="white" stroke="#231815"/>
<path d="M1186.34 504.662L1191.31 521.68L1182.55 525.501L1168.55 477.485L1183.36 471.028C1188.3 468.87 1192.36 468.588 1195.57 470.146C1198.77 471.722 1201.11 475.047 1202.59 480.139C1204.06 485.194 1203.97 489.573 1202.3 493.256C1200.64 496.939 1197.33 499.868 1192.39 502.027L1186.34 504.662ZM1190.89 494.632C1192.78 493.809 1193.93 492.439 1194.33 490.522C1194.72 488.605 1194.58 486.498 1193.91 484.202C1193.15 481.609 1192.13 479.716 1190.84 478.487C1189.56 477.275 1187.94 477.071 1186.01 477.929L1179.38 480.829L1184.26 497.532L1190.89 494.632Z" fill="white" stroke="#231815"/>
<path d="M1230.52 450.504L1232.73 457.542L1215.05 465.06L1218.84 477.071L1235.35 470.038L1237.56 477.076L1221.06 484.091L1225.13 497.016L1243.4 489.238L1246 497.483L1218.68 509.099L1203.79 461.861L1230.52 450.486L1230.52 450.504Z" fill="white" stroke="#231815"/>
<path d="M1266.19 442.413L1255.22 447.34L1268.37 488.808L1259.22 492.907L1246.08 451.439L1234.91 456.467L1232.61 449.215L1263.87 435.16L1266.17 442.413L1266.19 442.413Z" fill="white" stroke="#231815"/>
<path d="M1299.57 418.241L1308.18 414.062L1326.49 446.322L1319.61 408.519L1328.11 404.392L1336.77 457.216L1326.23 462.327L1308.83 430.945L1314.2 468.164L1303.66 473.276L1279.61 427.911L1288.11 423.783L1304.82 456.82L1299.55 418.241L1299.57 418.241Z" fill="white" stroke="#231815"/>
<path d="M1363.29 389.152L1380.62 436.311L1371.61 440.787L1363.69 419.236L1349.28 426.414L1357.2 447.965L1348.19 452.441L1330.86 405.283L1339.87 400.807L1346.71 419.386L1361.11 412.208L1354.28 393.629L1363.29 389.152Z" fill="white" stroke="#231815"/>
<path d="M1384 433.609L1379.15 379.08L1389.38 373.482L1420.37 413.707L1411.59 418.515L1404.27 408.727L1391.46 415.732L1392.79 428.801L1384.01 433.61L1384 433.609ZM1390.45 406.299L1398.97 401.627L1388.56 387.643L1390.45 406.299Z" fill="white" stroke="#231815"/>
<path d="M1432.98 358.084L1422.6 364.025L1438.64 403.069L1430 408.014L1413.95 368.969L1403.38 375.028L1400.57 368.189L1430.17 351.263L1432.98 358.102L1432.98 358.084Z" fill="white" stroke="#231815"/>
<path d="M1466.88 337.883L1461.73 341.02L1476 371.584L1481.16 368.446L1484.86 376.341L1465.76 387.971L1462.06 380.058L1467.22 376.921L1452.94 346.357L1447.79 349.495L1444.64 342.747L1463.74 331.117L1466.89 337.864L1466.88 337.883Z" fill="white" stroke="#231815"/>
<path d="M1471.47 341.016C1470.74 339.53 1470.29 337.892 1470.15 336.085C1470.01 334.278 1470.21 332.431 1470.77 330.547C1471.32 328.662 1472.27 326.814 1473.62 325.023C1474.96 323.212 1476.75 321.57 1478.99 320.096C1481.06 318.724 1483.07 317.754 1485.01 317.203C1486.95 316.652 1488.77 316.499 1490.47 316.726C1492.16 316.972 1493.68 317.614 1495.04 318.652C1496.4 319.69 1497.53 321.122 1498.4 322.908L1499.67 325.486L1491.35 331.008L1490.09 328.431C1489.78 327.828 1489.39 327.259 1488.89 326.757C1488.38 326.255 1487.81 325.898 1487.15 325.664C1486.49 325.449 1485.76 325.396 1484.95 325.523C1484.15 325.65 1483.28 326.032 1482.34 326.649C1480.58 327.815 1479.44 329.194 1478.94 330.769C1478.43 332.343 1478.58 333.949 1479.39 335.586C1480.02 336.847 1480.83 337.73 1481.84 338.237C1482.85 338.763 1483.94 339.072 1485.1 339.182C1486.26 339.292 1487.46 339.257 1488.67 339.076C1489.89 338.895 1491 338.727 1491.99 338.59C1494.24 338.311 1496.27 338.15 1498.1 338.108C1499.92 338.066 1501.52 338.233 1502.94 338.65C1504.36 339.048 1505.61 339.713 1506.72 340.629C1507.81 341.545 1508.75 342.802 1509.54 344.401C1510.44 346.226 1510.96 348.125 1511.09 350.079C1511.22 352.033 1510.97 353.968 1510.37 355.869C1509.77 357.77 1508.77 359.579 1507.41 361.315C1506.05 363.051 1504.33 364.623 1502.22 366.011C1499.65 367.708 1497.29 368.846 1495.14 369.387C1492.99 369.928 1491.06 370.002 1489.35 369.627C1487.64 369.252 1486.13 368.464 1484.83 367.281C1483.52 366.099 1482.44 364.633 1481.58 362.883L1480.4 360.494L1488.82 354.903L1489.21 355.693C1490.25 357.782 1491.56 359.056 1493.15 359.481C1494.74 359.924 1496.54 359.476 1498.54 358.138C1499.34 357.607 1499.97 356.975 1500.42 356.243C1500.87 355.511 1501.19 354.754 1501.34 353.953C1501.5 353.171 1501.53 352.363 1501.42 351.55C1501.32 350.736 1501.08 349.99 1500.74 349.313C1500.25 348.315 1499.66 347.608 1498.93 347.132C1498.22 346.676 1497.4 346.398 1496.46 346.298C1495.54 346.218 1494.5 346.242 1493.36 346.427C1492.23 346.594 1490.96 346.791 1489.56 347.019C1487.83 347.304 1486.11 347.535 1484.36 347.691C1482.63 347.866 1480.97 347.788 1479.39 347.455C1477.81 347.123 1476.34 346.484 1474.96 345.5C1473.59 344.516 1472.4 343.008 1471.41 340.995L1471.47 341.016Z" fill="white" stroke="#231815"/>
<path d="M1554.93 304.607L1556.21 306.924C1558.62 311.262 1559.34 315.43 1558.37 319.41C1557.41 323.389 1554.6 327.21 1549.93 330.887C1545.28 334.566 1541.15 336.193 1537.55 335.806C1533.96 335.419 1530.96 333.039 1528.55 328.7L1519.11 311.682C1516.7 307.343 1516.01 303.141 1517.06 299.111C1518.1 295.063 1520.94 291.208 1525.61 287.548C1530.26 283.87 1534.35 282.277 1537.86 282.732C1541.37 283.187 1544.34 285.584 1546.74 289.922L1547.51 291.331L1540.2 297.085L1539.24 295.361C1538.05 293.211 1536.55 292.02 1534.75 291.791C1532.95 291.561 1531.05 292.229 1529.06 293.795C1527.07 295.362 1525.88 297.129 1525.5 299.06C1525.12 301.01 1525.54 303.051 1526.74 305.202L1535.93 321.776C1537.13 323.926 1538.58 325.15 1540.29 325.466C1541.99 325.763 1543.85 325.13 1545.83 323.563C1547.81 321.996 1548.97 320.264 1549.29 318.366C1549.61 316.467 1549.16 314.442 1547.97 312.292L1547.09 310.734L1554.87 304.604L1554.93 304.607Z" fill="white" stroke="#231815"/>
<path d="M1581.77 305.204C1577.17 309.174 1573.06 311.027 1569.44 310.764C1565.83 310.501 1562.72 308.213 1560.13 303.883L1549.92 286.923C1547.32 282.611 1546.49 278.365 1547.43 274.166C1548.35 269.984 1551.13 265.891 1555.74 261.92C1560.34 257.95 1564.45 256.097 1568.06 256.361C1571.67 256.624 1574.78 258.912 1577.38 263.242L1587.58 280.202C1590.18 284.514 1590.95 288.812 1589.91 293.099C1588.88 297.386 1586.16 301.408 1581.77 305.204ZM1577.39 297.93C1579.43 296.181 1580.6 294.3 1580.91 292.303C1581.22 290.307 1580.73 288.235 1579.46 286.09L1569.51 269.566C1568.22 267.42 1566.77 266.189 1565.16 265.836C1563.55 265.502 1561.66 266.261 1559.48 268.15C1557.3 270.039 1556.08 271.937 1555.85 273.882C1555.62 275.827 1556.14 277.863 1557.42 279.99L1567.36 296.514C1568.66 298.66 1570.15 299.856 1571.87 300.104C1573.59 300.351 1575.44 299.627 1577.41 297.931L1577.39 297.93Z" fill="white" stroke="#231815"/>
<path d="M1600.06 267.152L1609.24 281.523L1601.54 288.136L1575.64 247.563L1588.66 236.365C1593.01 232.638 1596.96 230.959 1600.52 231.345C1604.07 231.731 1607.24 234.074 1609.98 238.372C1612.71 242.652 1613.7 246.813 1612.99 250.875C1612.27 254.936 1609.73 258.839 1605.4 262.566L1600.07 267.153L1600.06 267.152ZM1602.04 256.1C1603.71 254.657 1604.51 252.973 1604.41 251.03C1604.32 249.086 1603.66 247.152 1602.41 245.208C1601.01 243.022 1599.53 241.574 1597.95 240.865C1596.37 240.155 1594.72 240.53 1593.02 241.99L1587.19 247.005L1596.19 261.115L1602.02 256.1L1602.04 256.1Z" fill="white" stroke="#231815"/>
<path d="M1630.65 200.15L1634.4 206.426L1618.95 219.353L1625.37 230.055L1639.8 217.988L1643.55 224.263L1629.12 236.331L1636.03 247.853L1651.99 234.505L1656.4 241.868L1632.53 261.829L1607.27 219.708L1630.63 200.168L1630.65 200.15Z" fill="white" stroke="#231815"/>
<path d="M1665.26 182.712L1655.36 190.193L1675.92 227.079L1667.66 233.303L1647.11 196.417L1637.01 204.036L1633.41 197.584L1661.66 176.26L1665.26 182.712Z" fill="white" stroke="#231815"/>
<path d="M1698.51 152.748L1706.52 147.63L1727.45 176.203L1717.19 140.842L1725.11 135.792L1738.52 185.341L1728.71 191.602L1708.75 163.753L1717.5 198.749L1707.69 205.01L1679.92 164.604L1687.84 159.554L1707.27 189.083L1698.49 152.765L1698.51 152.748Z" fill="white" stroke="#231815"/>
<path d="M1762.23 115.815L1780.45 160.88L1771.95 165.644L1763.63 145.044L1750.01 152.66L1758.33 173.259L1749.82 178.024L1731.6 132.959L1740.11 128.194L1747.28 145.951L1760.9 138.335L1753.73 120.579L1762.23 115.815Z" fill="white" stroke="#231815"/>
<path d="M1784.28 160.316L1779.93 105.736L1790 100.224L1820.09 140.723L1811.44 145.463L1804.34 135.61L1791.72 142.514L1792.92 155.595L1784.28 160.335L1784.28 160.316ZM1790.8 133.047L1799.19 128.462L1789.1 114.4L1790.8 133.065L1790.8 133.047Z" fill="white" stroke="#231815"/>
<path d="M1835.54 85.0899L1824.84 90.4211L1839.4 130.301L1830.48 134.749L1815.92 94.8697L1805.02 100.319L1802.47 93.3381L1832.99 78.1092L1835.54 85.0899Z" fill="white" stroke="#231815"/>
<path d="M1873.33 67.9502L1867.85 70.5341L1879.04 103.962L1884.51 101.379L1887.4 110.026L1867.16 119.581L1864.27 110.933L1869.75 108.35L1858.56 74.9213L1853.08 77.5051L1850.61 70.1366L1870.85 60.5817L1873.33 67.9502Z" fill="white" stroke="#231815"/>
<path d="M1878.6 70.6855C1878.09 69.0949 1877.89 67.4094 1878.01 65.6116C1878.12 63.8137 1878.57 62.0495 1879.37 60.3024C1880.16 58.5546 1881.34 56.9162 1882.88 55.4046C1884.43 53.8748 1886.38 52.6013 1888.75 51.5478C1890.95 50.577 1893.01 50.0009 1894.96 49.802C1896.92 49.6213 1898.7 49.7967 1900.3 50.3282C1901.9 50.8779 1903.29 51.7814 1904.45 53.057C1905.61 54.3326 1906.51 55.9235 1907.12 57.8471L1907.99 60.6027L1899.21 64.4851L1898.33 61.7295C1898.13 61.0822 1897.81 60.4661 1897.42 59.8645C1897.01 59.2803 1896.5 58.8189 1895.89 58.4802C1895.27 58.1416 1894.58 57.9628 1893.78 57.9432C1892.98 57.9054 1892.09 58.1365 1891.12 58.5639C1889.24 59.3859 1887.95 60.5269 1887.26 61.9877C1886.54 63.4477 1886.47 65.0471 1887.03 66.8042C1887.45 68.154 1888.12 69.1695 1889.03 69.8683C1889.94 70.5671 1890.95 71.0704 1892.04 71.3957C1893.16 71.7217 1894.31 71.9038 1895.51 71.9609C1896.72 72.018 1897.81 72.0699 1898.78 72.0795C1901 72.2211 1902.98 72.4243 1904.76 72.7087C1906.51 72.9924 1908.06 73.4664 1909.38 74.1118C1910.69 74.7572 1911.81 75.6299 1912.75 76.7308C1913.68 77.8317 1914.42 79.2327 1914.96 80.9527C1915.59 82.9134 1915.83 84.8555 1915.67 86.8155C1915.52 88.7573 1915.02 90.6101 1914.17 92.355C1913.32 94.0999 1912.11 95.7005 1910.56 97.1568C1909 98.6131 1907.12 99.8357 1904.9 100.805C1902.18 102.006 1899.75 102.674 1897.59 102.809C1895.44 102.943 1893.57 102.673 1891.96 101.995C1890.36 101.318 1889 100.27 1887.92 98.8709C1886.83 97.471 1886 95.8286 1885.39 93.9602L1884.58 91.3893L1893.46 87.4568L1893.73 88.3077C1894.44 90.5455 1895.55 92.037 1897.02 92.7443C1898.49 93.4698 1900.3 93.3551 1902.41 92.417C1903.26 92.0382 1903.96 91.543 1904.49 90.8942C1905.04 90.2644 1905.43 89.5726 1905.7 88.8203C1905.97 88.0681 1906.1 87.291 1906.11 86.4716C1906.12 85.6522 1906 84.8814 1905.77 84.1418C1905.42 83.0873 1904.95 82.2631 1904.32 81.6867C1903.68 81.1103 1902.94 80.6923 1902.04 80.4312C1901.16 80.1708 1900.15 80.0318 1899.04 79.9791C1897.91 79.9257 1896.67 79.9035 1895.28 79.8557C1893.57 79.8113 1891.87 79.7305 1890.18 79.5777C1888.5 79.4249 1886.9 79.0396 1885.41 78.4406C1883.93 77.8423 1882.6 76.9229 1881.4 75.7185C1880.2 74.4959 1879.27 72.812 1878.58 70.6484L1878.6 70.6855Z" fill="white" stroke="#231815"/>
<path d="M1967.35 55.5072L1968.1 58.1461C1969.51 63.0789 1969.27 67.3234 1967.4 70.8616C1965.52 74.3998 1961.85 77.2064 1956.36 79.2985C1950.88 81.3906 1946.39 81.6807 1942.91 80.1689C1939.42 78.675 1936.97 75.4523 1935.56 70.5194L1930.04 51.189C1928.63 46.2561 1928.92 41.996 1930.87 38.4257C1932.82 34.8553 1936.55 32.0331 1942.03 29.941C1947.52 27.8489 1951.96 27.5924 1955.35 29.1177C1958.73 30.6608 1961.14 33.8813 1962.55 38.832L1963 40.4153L1954.39 43.6882L1953.83 41.7227C1953.14 39.2839 1951.91 37.6632 1950.17 36.8808C1948.43 36.0976 1946.38 36.1445 1944.04 37.0387C1941.69 37.9328 1940.11 39.2585 1939.3 41.0157C1938.49 42.7729 1938.42 44.8705 1939.12 47.3279L1944.5 66.1672C1945.19 68.606 1946.36 70.2595 1948 71.0733C1949.64 71.9049 1951.63 71.8737 1953.96 70.9788C1956.3 70.0839 1957.86 68.7754 1958.6 67.0511C1959.35 65.3267 1959.37 63.2269 1958.68 60.7881L1958.18 59.0047L1967.32 55.5236L1967.35 55.5072Z" fill="white" stroke="#231815"/>
<path d="M1992.67 66.8715C1987.06 68.7696 1982.54 68.8671 1979.11 67.1825C1975.69 65.4796 1973.35 62.0861 1972.09 56.9828L1967.11 36.9403C1965.85 31.8371 1966.28 27.5109 1968.39 23.9429C1970.51 20.3755 1974.37 17.6425 1979.98 15.7262C1985.59 13.8282 1990.11 13.7306 1993.54 15.4152C1996.96 17.1181 1999.3 20.5117 2000.56 25.6149L2005.54 45.6574C2006.8 50.7607 2006.3 55.1204 2004.07 58.7373C2001.82 62.3535 1998.02 65.0712 1992.67 66.8715ZM1990.53 58.279C1993 57.4425 1994.68 56.1466 1995.57 54.3729C1996.45 52.6175 1996.58 50.4598 1995.95 47.9356L1991.11 28.4131C1990.48 25.8889 1989.44 24.1341 1987.98 23.1663C1986.53 22.1985 1984.46 22.1741 1981.81 23.0754C1979.16 23.9767 1977.43 25.2886 1976.63 27.0295C1975.84 28.7528 1975.76 30.8945 1976.37 33.4179L1981.21 52.9405C1981.84 55.4647 1982.95 57.1859 1984.53 58.1231C1986.12 59.0604 1988.12 59.1001 1990.53 58.2973L1990.53 58.279Z" fill="white" stroke="#231815"/>
</svg>
